# xmcd CD database file
#
# Track frame offsets:
#	183
#	11073
#	33088
#	57118
#	88715
#	104993
#	130018
#	154115
#	170023
#
# Disc length: 2496 seconds
#
# Revision: 0
# Processed by: cddbd v1.5.2PL0 Copyright (c) Steve Scherf et al.
# Submitted via: CDex 1.51
#
DISCID=7009be09
DTITLE=Urban Jazz - The Original Illicit Grooves
DYEAR=1989
DGENRE=Jazz
TTITLE0=Cal Tjader - Soul Sauce
TTITLE1=Grant Green - The Cantaloupe Woman
TTITLE2=Jimmy Smith - 8 Counts For Rita
TTITLE3=The James Brown Band - In the Middle
TTITLE4=Johnny Pate - You're Starting Too Fast
TTITLE5=Charles Earland - Betty Boop
TTITLE6=The New Jersey Kings - Spinning Wheel
TTITLE7=James Brown - Don't Mind
TTITLE8=Johnny Pate - That Ain't Too Cool
EXTD=YEAR: 1989
EXTT0=
EXTT1=
EXTT2=
EXTT3=
EXTT4=
EXTT5=
EXTT6=
EXTT7=
EXTT8=
PLAYORDER=
